<svg width="13" height="14" viewBox="0 0 13 14" fill="none" xmlns="http://www.w3.org/2000/svg">
<path d="M9.5037 0.827551C9.88118 0.609729 10.3122 0.502131 10.7478 0.516978C11.1833 0.531825 11.606 0.668523 11.9678 0.911544C12.3295 1.15457 12.6159 1.49417 12.7944 1.89178C12.9728 2.2894 13.0362 2.72909 12.9773 3.16091C12.9183 3.59273 12.7395 3.99938 12.4611 4.33466C12.1827 4.66994 11.8158 4.92043 11.4021 5.05766C10.9885 5.19489 10.5446 5.21337 10.121 5.11099C9.69737 5.00862 9.31094 4.7895 9.0056 4.47852L5.34705 6.59093C5.40414 6.79793 5.4323 7.0061 5.43153 7.21544C5.43153 7.424 5.40414 7.63431 5.34705 7.83996L9.0056 9.95236C9.40341 9.54894 9.93452 9.30418 10.4997 9.26383C11.0648 9.22348 11.6253 9.39031 12.0764 9.73312C12.5275 10.0759 12.8383 10.5713 12.9507 11.1266C13.0632 11.6819 12.9696 12.2591 12.6874 12.7504C12.4044 13.2426 11.9513 13.6145 11.4134 13.7962C10.8755 13.978 10.2898 13.9571 9.76622 13.7375C9.24264 13.5179 8.81723 13.1147 8.56991 12.6037C8.32259 12.0926 8.27035 11.5088 8.42303 10.962L4.76448 8.84897C4.44014 9.17927 4.0248 9.40553 3.5714 9.49894C3.118 9.59234 2.64706 9.54866 2.21857 9.37345C1.79009 9.19825 1.42346 8.89945 1.1654 8.51513C0.90734 8.13081 0.769531 7.67836 0.769531 7.21544C0.769531 6.75252 0.90734 6.30008 1.1654 5.91576C1.42346 5.53144 1.79009 5.23264 2.21857 5.05743C2.64706 4.88222 3.118 4.83854 3.5714 4.93194C4.0248 5.02535 4.44014 5.25161 4.76448 5.58191L8.42303 3.46951C8.28476 2.97165 8.31588 2.44195 8.5115 1.9637C8.70712 1.48546 9.05615 1.08579 9.5037 0.827551ZM11.6779 2.26359C11.6019 2.13001 11.5003 2.01277 11.3788 1.91863C11.2574 1.82448 11.1185 1.75529 10.9703 1.71503C10.822 1.67477 10.6672 1.66424 10.5148 1.68404C10.3624 1.70385 10.2155 1.7536 10.0824 1.83043C9.94932 1.90726 9.83276 2.00966 9.73942 2.13172C9.64608 2.25378 9.57781 2.3931 9.53854 2.54165C9.49926 2.69021 9.48976 2.84506 9.51057 2.99731C9.53139 3.14955 9.58211 3.29617 9.65983 3.42873C9.81543 3.69416 10.0697 3.88726 10.3672 3.9659C10.6646 4.04455 10.9811 4.00234 11.2476 3.8485C11.514 3.69466 11.7088 3.44167 11.7894 3.14474C11.87 2.84782 11.8299 2.53106 11.6779 2.26359ZM1.97688 7.52246C2.0241 7.69427 2.11007 7.85297 2.22817 7.98639C2.34627 8.11981 2.49337 8.2244 2.65819 8.29213C2.823 8.35985 3.00113 8.38891 3.17892 8.37708C3.35671 8.36525 3.52943 8.31284 3.68381 8.22387C3.87229 8.11493 4.02648 7.95536 4.1289 7.76326C4.23132 7.57116 4.27787 7.3542 4.26327 7.13699C4.24868 6.91978 4.17352 6.711 4.04632 6.53433C3.91912 6.35766 3.74497 6.22015 3.5436 6.13741C3.34224 6.05467 3.12173 6.02999 2.90706 6.06618C2.69238 6.10237 2.49215 6.19798 2.32904 6.34217C2.16594 6.48636 2.0465 6.67336 1.98425 6.88198C1.92201 7.09059 1.91945 7.31247 1.97688 7.52246ZM11.2514 10.5763C11.1188 10.4986 10.9722 10.4479 10.82 10.427C10.6677 10.4062 10.5129 10.4157 10.3643 10.455C10.2158 10.4943 10.0765 10.5626 9.9544 10.6559C9.83233 10.7492 9.72994 10.8658 9.65311 10.9989C9.57628 11.1319 9.52653 11.2789 9.50672 11.4313C9.48692 11.5836 9.49745 11.7384 9.53771 11.8867C9.57797 12.035 9.64716 12.1739 9.74131 12.2953C9.83545 12.4168 9.95269 12.5184 10.0863 12.5943C10.3537 12.7464 10.6705 12.7865 10.9674 12.7059C11.2643 12.6253 11.5173 12.4305 11.6712 12.164C11.825 11.8976 11.8672 11.5811 11.7886 11.2836C11.7099 10.9862 11.5168 10.7319 11.2514 10.5763Z" fill="#7E7E7E"/>
</svg>
