<svg width="16" height="16" viewBox="0 0 16 16" fill="none" xmlns="http://www.w3.org/2000/svg">
<path d="M8.10151 11.5068C7.98733 11.5068 7.88167 11.488 7.78451 11.4504C7.68736 11.4128 7.59268 11.3476 7.50049 11.2547L4.71347 8.4687C4.60993 8.36516 4.55604 8.24318 4.55178 8.10277C4.54753 7.96235 4.60142 7.83364 4.71347 7.71663C4.83119 7.59891 4.95778 7.53898 5.09323 7.53685C5.22939 7.53473 5.35598 7.59252 5.47299 7.71025L7.56964 9.80689V1.13735C7.56964 0.986298 7.62034 0.859712 7.72175 0.757592C7.82316 0.655472 7.94975 0.604767 8.10151 0.605476C8.25327 0.606185 8.37986 0.656891 8.48127 0.757592C8.58268 0.858294 8.63338 0.984879 8.63338 1.13735V9.80689L10.73 7.71025C10.8336 7.60671 10.9566 7.55246 11.0992 7.54749C11.2417 7.54253 11.3715 7.59891 11.4885 7.71663C11.602 7.83364 11.6597 7.95916 11.6619 8.09319C11.664 8.22723 11.6066 8.35239 11.4895 8.4687L8.70253 11.2557C8.61034 11.3479 8.51566 11.4128 8.41851 11.4504C8.32206 11.488 8.21639 11.5068 8.10151 11.5068ZM2.37429 15.4979C1.88426 15.4979 1.47542 15.3341 1.14779 15.0065C0.820154 14.6789 0.655983 14.2697 0.655273 13.7789V11.7333C0.655273 11.5823 0.705979 11.4561 0.80739 11.3546C0.9088 11.2532 1.03539 11.2022 1.18715 11.2015C1.33891 11.2008 1.46549 11.2518 1.56691 11.3546C1.66832 11.4575 1.71902 11.5837 1.71902 11.7333V13.7789C1.71902 13.9427 1.7871 14.0931 1.92326 14.23C2.05942 14.3668 2.20941 14.4349 2.37323 14.4342H13.8298C13.9929 14.4342 14.1429 14.3661 14.2798 14.23C14.4166 14.0938 14.4847 13.9435 14.484 13.7789V11.7333C14.484 11.5823 14.5347 11.4561 14.6361 11.3546C14.7375 11.2532 14.8641 11.2022 15.0159 11.2015C15.1676 11.2008 15.2942 11.2518 15.3956 11.3546C15.497 11.4575 15.5477 11.5837 15.5477 11.7333V13.7789C15.5477 14.269 15.3839 14.6778 15.0563 15.0054C14.7287 15.3331 14.3195 15.4972 13.8287 15.4979H2.37429Z" fill="#7E7E7E"/>
</svg>
