<svg width="16" height="16" viewBox="0 0 16 16" fill="none" xmlns="http://www.w3.org/2000/svg">
<g clip-path="url(#clip0_1329_1039)">
<path d="M13.6344 4.59059L9.41108 0.367236C9.30376 0.259787 9.15817 0.199352 9.00631 0.199219H7.11993C6.56292 0.199219 6.02872 0.420491 5.63485 0.814359C5.24098 1.20823 5.01971 1.74243 5.01971 2.29944V3.25409H4.06506C3.50805 3.25409 2.97385 3.47536 2.57998 3.86923C2.18612 4.26309 1.96484 4.79729 1.96484 5.35431V12.9915C1.96484 13.5485 2.18612 14.0827 2.57998 14.4766C2.97385 14.8704 3.50805 15.0917 4.06506 15.0917H9.41108C9.96809 15.0917 10.5023 14.8704 10.8962 14.4766C11.29 14.0827 11.5113 13.5485 11.5113 12.9915V12.0368H11.7022C12.2592 12.0368 12.7934 11.8156 13.1873 11.4217C13.5812 11.0278 13.8025 10.4936 13.8025 9.93661V4.97245C13.7964 4.82857 13.7365 4.69223 13.6344 4.59059ZM9.60201 2.15433L11.8473 4.39966H9.60201V2.15433ZM10.3657 12.9915C10.3657 13.2447 10.2651 13.4875 10.0861 13.6665C9.90709 13.8455 9.66427 13.9461 9.41108 13.9461H4.06506C3.81188 13.9461 3.56906 13.8455 3.39003 13.6665C3.211 13.4875 3.11042 13.2447 3.11042 12.9915V5.35431C3.11042 5.10112 3.211 4.8583 3.39003 4.67927C3.56906 4.50024 3.81188 4.39966 4.06506 4.39966H5.01971V9.93661C5.01971 10.4936 5.24098 11.0278 5.63485 11.4217C6.02872 11.8156 6.56292 12.0368 7.11993 12.0368H10.3657V12.9915ZM11.7022 10.8913H7.11993C6.86674 10.8913 6.62393 10.7907 6.44489 10.6116C6.26586 10.4326 6.16529 10.1898 6.16529 9.93661V2.29944C6.16529 2.04625 6.26586 1.80343 6.44489 1.6244C6.62393 1.44537 6.86674 1.34479 7.11993 1.34479H8.45643V4.97245C8.45841 5.12374 8.51939 5.26829 8.62639 5.37528C8.73338 5.48227 8.87792 5.54326 9.02922 5.54523H12.6569V9.93661C12.6569 10.1898 12.5563 10.4326 12.3773 10.6116C12.1982 10.7907 11.9554 10.8913 11.7022 10.8913Z" fill="#7E7E7E"/>
</g>
<defs>
<clipPath id="clip0_1329_1039">
<rect width="14.8925" height="14.8925" fill="white" transform="translate(0.4375 0.199219)"/>
</clipPath>
</defs>
</svg>
