<svg width="32" height="32" viewBox="0 0 32 32" fill="none" xmlns="http://www.w3.org/2000/svg">
<path d="M21.3346 28V25.3333C21.3346 23.9188 20.7727 22.5623 19.7725 21.5621C18.7723 20.5619 17.4158 20 16.0013 20H8.0013C6.58681 20 5.23026 20.5619 4.23007 21.5621C3.22987 22.5623 2.66797 23.9188 2.66797 25.3333V28" stroke="white" stroke-width="2.66667" stroke-linecap="round" stroke-linejoin="round"/>
<path d="M12.0013 14.6667C14.9468 14.6667 17.3346 12.2789 17.3346 9.33333C17.3346 6.38781 14.9468 4 12.0013 4C9.05578 4 6.66797 6.38781 6.66797 9.33333C6.66797 12.2789 9.05578 14.6667 12.0013 14.6667Z" stroke="white" stroke-width="2.66667" stroke-linecap="round" stroke-linejoin="round"/>
<path d="M29.332 28.0005V25.3338C29.3311 24.1521 28.9378 23.0042 28.2139 22.0702C27.4899 21.1363 26.4762 20.4693 25.332 20.1738" stroke="white" stroke-width="2.66667" stroke-linecap="round" stroke-linejoin="round"/>
<path d="M21.332 4.17383C22.4793 4.46756 23.4961 5.13476 24.2222 6.07024C24.9484 7.00572 25.3425 8.15627 25.3425 9.34049C25.3425 10.5247 24.9484 11.6753 24.2222 12.6107C23.4961 13.5462 22.4793 14.2134 21.332 14.5072" stroke="white" stroke-width="2.66667" stroke-linecap="round" stroke-linejoin="round"/>
</svg>
