<svg width="32" height="32" viewBox="0 0 32 32" fill="none" xmlns="http://www.w3.org/2000/svg">
<path fill-rule="evenodd" clip-rule="evenodd" d="M21.3333 10.666V5.33268C21.3333 3.30735 19.692 1.66602 17.6667 1.66602C14.408 1.66602 8.92533 1.66602 5.66667 1.66602C4.69467 1.66602 3.76133 2.05268 3.07333 2.73935C2.38667 3.42735 2 4.36068 2 5.33268V26.666C2 27.638 2.38667 28.5714 3.07333 29.2593C3.76133 29.946 4.69467 30.3327 5.66667 30.3327H17.6667C19.692 30.3327 21.3333 28.6913 21.3333 26.666V21.3327C21.3333 20.7807 20.8853 20.3327 20.3333 20.3327C19.7813 20.3327 19.3333 20.7807 19.3333 21.3327V26.666C19.3333 27.586 18.5867 28.3327 17.6667 28.3327C14.408 28.3327 8.92533 28.3327 5.66667 28.3327C5.224 28.3327 4.80133 28.1567 4.488 27.8447C4.176 27.5314 4 27.1087 4 26.666V5.33268C4 4.89002 4.176 4.46735 4.488 4.15402C4.80133 3.84202 5.224 3.66602 5.66667 3.66602H17.6667C18.5867 3.66602 19.3333 4.41268 19.3333 5.33268V10.666C19.3333 11.218 19.7813 11.666 20.3333 11.666C20.8853 11.666 21.3333 11.218 21.3333 10.666Z" fill="#006837"/>
<path fill-rule="evenodd" clip-rule="evenodd" d="M30.0013 11.9993C30.0013 10.7113 28.9573 9.66602 27.668 9.66602H13.0013C11.712 9.66602 10.668 10.7113 10.668 11.9993V19.9993C10.668 21.2873 11.712 22.3327 13.0013 22.3327H27.668C28.9573 22.3327 30.0013 21.2873 30.0013 19.9993V11.9993ZM28.0013 11.9993V19.9993C28.0013 20.1833 27.852 20.3327 27.668 20.3327H13.0013C12.8173 20.3327 12.668 20.1833 12.668 19.9993V11.9993C12.668 11.8153 12.8173 11.666 13.0013 11.666H27.668C27.852 11.666 28.0013 11.8153 28.0013 11.9993Z" fill="#006837"/>
<path fill-rule="evenodd" clip-rule="evenodd" d="M6.01991 2.86193L6.47191 5.12326C6.68925 6.21393 7.64791 6.99926 8.75991 6.99926H14.5732C15.6852 6.99926 16.6439 6.21393 16.8612 5.12326L17.3132 2.86193C17.4226 2.32059 17.0706 1.79393 16.5292 1.68593C15.9879 1.57659 15.4612 1.92859 15.3532 2.46993L14.8999 4.73126C14.8692 4.88726 14.7319 4.99926 14.5732 4.99926H8.75991C8.60125 4.99926 8.46391 4.88726 8.43324 4.73126L7.97991 2.46993C7.87191 1.92859 7.34525 1.57659 6.80391 1.68593C6.26258 1.79393 5.91058 2.32059 6.01991 2.86193Z" fill="#006837"/>
<path fill-rule="evenodd" clip-rule="evenodd" d="M9.66797 26.332H13.668C14.22 26.332 14.668 25.884 14.668 25.332C14.668 24.78 14.22 24.332 13.668 24.332H9.66797C9.11597 24.332 8.66797 24.78 8.66797 25.332C8.66797 25.884 9.11597 26.332 9.66797 26.332Z" fill="#006837"/>
<path fill-rule="evenodd" clip-rule="evenodd" d="M23.668 19H25.668C26.22 19 26.668 18.552 26.668 18C26.668 17.448 26.22 17 25.668 17H23.668C23.116 17 22.668 17.448 22.668 18C22.668 18.552 23.116 19 23.668 19Z" fill="#006837"/>
</svg>
