<svg width="28" height="30" viewBox="0 0 28 30" fill="none" xmlns="http://www.w3.org/2000/svg">
<path fill-rule="evenodd" clip-rule="evenodd" d="M19.3333 9.66602V4.33268C19.3333 2.30735 17.692 0.666016 15.6667 0.666016C12.408 0.666016 6.92533 0.666016 3.66667 0.666016C2.69467 0.666016 1.76133 1.05268 1.07333 1.73935C0.386667 2.42735 0 3.36068 0 4.33268V25.666C0 26.638 0.386667 27.5714 1.07333 28.2593C1.76133 28.946 2.69467 29.3327 3.66667 29.3327H15.6667C17.692 29.3327 19.3333 27.6913 19.3333 25.666V20.3327C19.3333 19.7807 18.8853 19.3327 18.3333 19.3327C17.7813 19.3327 17.3333 19.7807 17.3333 20.3327V25.666C17.3333 26.586 16.5867 27.3327 15.6667 27.3327C12.408 27.3327 6.92533 27.3327 3.66667 27.3327C3.224 27.3327 2.80133 27.1567 2.488 26.8447C2.176 26.5314 2 26.1087 2 25.666V4.33268C2 3.89002 2.176 3.46735 2.488 3.15402C2.80133 2.84202 3.224 2.66602 3.66667 2.66602H15.6667C16.5867 2.66602 17.3333 3.41268 17.3333 4.33268V9.66602C17.3333 10.218 17.7813 10.666 18.3333 10.666C18.8853 10.666 19.3333 10.218 19.3333 9.66602Z" fill="#006837"/>
<path fill-rule="evenodd" clip-rule="evenodd" d="M28.0013 10.9993C28.0013 9.71135 26.9573 8.66602 25.668 8.66602H11.0013C9.71197 8.66602 8.66797 9.71135 8.66797 10.9993V18.9993C8.66797 20.2873 9.71197 21.3327 11.0013 21.3327H25.668C26.9573 21.3327 28.0013 20.2873 28.0013 18.9993V10.9993ZM26.0013 10.9993V18.9993C26.0013 19.1833 25.852 19.3327 25.668 19.3327H11.0013C10.8173 19.3327 10.668 19.1833 10.668 18.9993V10.9993C10.668 10.8153 10.8173 10.666 11.0013 10.666H25.668C25.852 10.666 26.0013 10.8153 26.0013 10.9993Z" fill="#006837"/>
<path fill-rule="evenodd" clip-rule="evenodd" d="M4.01991 1.86193L4.47191 4.12326C4.68925 5.21393 5.64791 5.99926 6.75991 5.99926H12.5732C13.6852 5.99926 14.6439 5.21393 14.8612 4.12326L15.3132 1.86193C15.4226 1.32059 15.0706 0.793927 14.5292 0.685927C13.9879 0.576594 13.4612 0.928594 13.3532 1.46993L12.8999 3.73126C12.8692 3.88726 12.7319 3.99926 12.5732 3.99926H6.75991C6.60125 3.99926 6.46391 3.88726 6.43324 3.73126L5.97991 1.46993C5.87191 0.928594 5.34525 0.576594 4.80391 0.685927C4.26258 0.793927 3.91058 1.32059 4.01991 1.86193Z" fill="#006837"/>
<path fill-rule="evenodd" clip-rule="evenodd" d="M7.66797 25.332H11.668C12.22 25.332 12.668 24.884 12.668 24.332C12.668 23.78 12.22 23.332 11.668 23.332H7.66797C7.11597 23.332 6.66797 23.78 6.66797 24.332C6.66797 24.884 7.11597 25.332 7.66797 25.332Z" fill="#006837"/>
<path fill-rule="evenodd" clip-rule="evenodd" d="M21.668 18H23.668C24.22 18 24.668 17.552 24.668 17C24.668 16.448 24.22 16 23.668 16H21.668C21.116 16 20.668 16.448 20.668 17C20.668 17.552 21.116 18 21.668 18Z" fill="#006837"/>
</svg>
