<svg width="32" height="32" viewBox="0 0 32 32" fill="none" xmlns="http://www.w3.org/2000/svg">
<path fill-rule="evenodd" clip-rule="evenodd" d="M30.3346 16C30.3346 14.6733 29.808 13.4027 28.8706 12.464C27.932 11.5267 26.6613 11 25.3346 11C20.3 11 11.7026 11 6.66797 11C5.3413 11 4.07064 11.5267 3.13197 12.464C2.19464 13.4027 1.66797 14.6733 1.66797 16V20C1.66797 21.3267 2.19464 22.5973 3.13197 23.536C4.07064 24.4733 5.3413 25 6.66797 25H25.3346C26.6613 25 27.932 24.4733 28.8706 23.536C29.808 22.5973 30.3346 21.3267 30.3346 20V16ZM28.3346 16V20C28.3346 20.796 28.0186 21.5587 27.456 22.1213C26.8933 22.684 26.1306 23 25.3346 23C20.3 23 11.7026 23 6.66797 23C5.87197 23 5.1093 22.684 4.54664 22.1213C3.98397 21.5587 3.66797 20.796 3.66797 20V16C3.66797 15.204 3.98397 14.4413 4.54664 13.8787C5.1093 13.316 5.87197 13 6.66797 13H25.3346C26.1306 13 26.8933 13.316 27.456 13.8787C28.0186 14.4413 28.3346 15.204 28.3346 16Z" fill="#006837"/>
<path fill-rule="evenodd" clip-rule="evenodd" d="M19.6693 24C19.6693 23.448 19.2213 23 18.6693 23H13.3359C12.7839 23 12.3359 23.448 12.3359 24V28.6667C12.3359 29.2187 12.7839 29.6667 13.3359 29.6667H18.6693C19.2213 29.6667 19.6693 29.2187 19.6693 28.6667V24ZM17.6693 25V27.6667H14.3359V25H17.6693Z" fill="#006837"/>
<path fill-rule="evenodd" clip-rule="evenodd" d="M23.3346 27.668H8.66797C8.11597 27.668 7.66797 28.116 7.66797 28.668C7.66797 29.22 8.11597 29.668 8.66797 29.668H23.3346C23.8866 29.668 24.3346 29.22 24.3346 28.668C24.3346 28.116 23.8866 27.668 23.3346 27.668Z" fill="#006837"/>
<path fill-rule="evenodd" clip-rule="evenodd" d="M16.0026 14.334C13.9786 14.334 12.3359 15.9767 12.3359 18.0007C12.3359 20.0247 13.9786 21.6673 16.0026 21.6673C18.0266 21.6673 19.6693 20.0247 19.6693 18.0007C19.6693 15.9767 18.0266 14.334 16.0026 14.334ZM16.0026 16.334C16.9226 16.334 17.6693 17.0807 17.6693 18.0007C17.6693 18.9207 16.9226 19.6673 16.0026 19.6673C15.0826 19.6673 14.3359 18.9207 14.3359 18.0007C14.3359 17.0807 15.0826 16.334 16.0026 16.334Z" fill="#006837"/>
<path fill-rule="evenodd" clip-rule="evenodd" d="M13.8232 8.87265C14.4299 8.53132 15.1846 8.33398 15.9992 8.33398C16.8152 8.33398 17.5699 8.53132 18.1766 8.87265C18.6579 9.14332 19.2672 8.97265 19.5392 8.49132C19.8099 8.00998 19.6392 7.40065 19.1579 7.12865C18.2779 6.63398 17.1846 6.33398 15.9992 6.33398C14.8152 6.33398 13.7219 6.63398 12.8419 7.12865C12.3606 7.40065 12.1899 8.00998 12.4606 8.49132C12.7326 8.97265 13.3419 9.14332 13.8232 8.87265Z" fill="#006837"/>
<path fill-rule="evenodd" clip-rule="evenodd" d="M11.8095 5.32598C12.9775 4.69932 14.4309 4.33398 16.0029 4.33398C17.5749 4.33398 19.0282 4.69932 20.1962 5.32598C20.6829 5.58732 21.2895 5.40465 21.5509 4.91798C21.8122 4.43132 21.6282 3.82465 21.1429 3.56465C19.7095 2.79532 17.9309 2.33398 16.0029 2.33398C14.0749 2.33398 12.2962 2.79532 10.8629 3.56465C10.3775 3.82465 10.1935 4.43132 10.4549 4.91798C10.7162 5.40465 11.3229 5.58732 11.8095 5.32598Z" fill="#006837"/>
<path fill-rule="evenodd" clip-rule="evenodd" d="M22.668 19H24.668C25.22 19 25.668 18.552 25.668 18C25.668 17.448 25.22 17 24.668 17H22.668C22.116 17 21.668 17.448 21.668 18C21.668 18.552 22.116 19 22.668 19Z" fill="#006837"/>
<path fill-rule="evenodd" clip-rule="evenodd" d="M7.33594 19H9.33594C9.88794 19 10.3359 18.552 10.3359 18C10.3359 17.448 9.88794 17 9.33594 17H7.33594C6.78394 17 6.33594 17.448 6.33594 18C6.33594 18.552 6.78394 19 7.33594 19Z" fill="#006837"/>
</svg>
