<svg width="19" height="16" viewBox="0 0 19 16" fill="none" xmlns="http://www.w3.org/2000/svg">
<path d="M13.0994 14.3007H12.1994V13.2207H6.79937V14.3007H5.89937C5.60058 14.3007 5.35938 14.5419 5.35938 14.8407C5.35938 15.1395 5.60058 15.3807 5.89937 15.3807H13.0994C13.3982 15.3807 13.6394 15.1395 13.6394 14.8407C13.6394 14.5419 13.3982 14.3007 13.0994 14.3007Z" fill="#006837"/>
<path d="M16.6997 0.621094H2.29969C1.40689 0.621094 0.679688 1.34829 0.679688 2.24109V10.5211C0.679688 11.4139 1.40689 12.1411 2.29969 12.1411H16.6997C17.5925 12.1411 18.3197 11.4139 18.3197 10.5211V2.24109C18.3197 1.34829 17.5925 0.621094 16.6997 0.621094Z" fill="#006837"/>
</svg>
